<svg width="500px" height="500px" viewBox="0 0 500 500" xmlns="http://www.w3.org/2000/svg" xmlns:xlink="http://www.w3.org/1999/xlink">
  <defs>
    <radialGradient gradientUnits="userSpaceOnUse" r="819.2" cx="0" cy="0" spreadMethod="pad" gradientTransform="matrix(0.43157958984375 0 0 0.43157958984375 250 250)" id="gradient0">
      <stop offset="0" stop-color="#004971"/>
      <stop offset="1"/>
    </radialGradient>
  </defs>
  <g>
    <path stroke="none" fill="#ffa826" d="M240.8 64.2 L419.65 252.55 419.5 252.7 416.95 251.8 396.65 244.15 396.15 244.1 391 242.35 380.65 238.85 380.2 238.75 351.65 228.2 351.15 228.1 Q347.6 226.85 343.9 225.75 L343.4 225.7 Q327.65 219.45 311 214.15 L310.95 213.9 Q307.05 213 304.2 211.25 L303.75 211.2 Q289.75 206.35 275.65 201.6 L275.6 201.3 Q267.6 199 260.65 195.8 L260.2 195.7 232.6 186.1 232.15 186.05 Q214.8 179.45 196.8 173.55 L240.8 64.2"/>
    <path stroke="none" fill="#3b9de0" d="M419.5 252.7 L419.5 252.75 Q418.5 252.75 420 252.9 L420.4 254.65 421.2 258.55 Q421.6 260.6 421.8 260.6 L422.4 263.6 422.65 264.4 409.2 268.8 408.75 268.7 403.9 266.9 403.85 266.4 Q402.95 258.6 401.45 251.4 L401 251.35 391 247.55 386.95 246.1 386.55 246.2 Q385.6 246.9 384.05 247.05 L383.95 246.6 380.65 238.85 391 242.35 396.15 244.1 396.65 244.15 416.95 251.8 419.5 252.7"/>
    <path stroke="none" fill="#0c100f" d="M384.05 247.05 Q385.6 246.9 386.55 246.2 L386.95 246.1 388.1 259 Q389.7 276.45 391.75 293.5 L391.8 293.95 393.05 307 Q395.95 336.15 399 365.1 L399.05 365.55 399 365.55 398.6 365.6 390.8 367 390.35 367 366.15 362.65 366.1 362.15 362.75 328.3 362.75 327.85 361.05 307 356.95 262.55 361.45 259 366 255.15 366.15 254.8 Q374.3 250.35 383.95 247.3 L384.05 247.05"/>
    <path stroke="none" fill="#3f9adb" d="M419.5 252.75 L419.6 252.75 420 252.9 Q418.5 252.75 419.5 252.75"/>
    <path stroke="none" fill="#070908" d="M408.7 269.3 L408.6 269.65 404.35 272.7 404.35 272.2 404.35 270.75 408.25 269.4 408.7 269.3"/>
    <path stroke="none" fill="#0b0f0f" d="M408.7 269.3 L409.1 269.2 409.2 268.8 422.65 264.4 423.15 264.25 422.65 264.45 Q427.3 263.2 430.5 261.8 L430.5 262.05 Q432.85 284.9 436.05 307 L436.3 308.5 436.3 308.95 Q440 341.55 444 373.8 L444.05 374.25 443.55 374.3 435.8 375.25 430.65 374.3 415.5 371.85 415.45 371.35 411.65 341.35 411.6 340.9 408.1 307 404.35 272.7 408.6 269.65 408.7 269.3"/>
    <path stroke="none" fill="#8c8c8c" d="M408.7 269.3 L408.25 269.4 404.35 270.75 404.15 270.75 403.9 266.9 408.75 268.7 409.2 268.8 409.1 269.2 408.7 269.3"/>
    <path stroke="none" fill="#777777" d="M404.35 272.7 L408.1 307 411.6 340.9 411.65 341.35 411.35 341.3 Q404.75 323.8 397.55 307 L391.8 293.95 391.75 293.5 Q389.7 276.45 388.1 259 L386.95 246.1 391 247.55 401 251.35 401.45 251.4 Q402.95 258.6 403.85 266.4 L403.9 266.9 404.15 270.75 404.35 270.75 404.35 272.2 404.35 272.7 M120.35 204.5 Q127.3 199.8 133.5 194.45 L133.9 194.35 133.9 194.8 132.9 227.2 132.9 238.35 132.9 238.85 132.9 239.3 132.6 259 132.55 262 131.6 307 131 331.2 131 335.1 130.75 335.9 130.9 335.85 Q123.5 339 116 341.85 L116 341.35 116 332.65 116.1 332.2 116 332.2 116 323.95 Q116.2 323.6 116.2 320.95 L116.45 313.3 116.55 312.85 116.45 312.85 116.45 307 116.45 305.1 Q116.7 305.1 116.5 304.9 L116.9 298 116.95 294.45 117.05 294 116.95 293.95 Q116.95 289.85 117.05 289.95 117.2 285.75 117.45 285.25 L117.45 275.6 117.55 275.15 117.45 275.1 117.65 266.9 117.9 266.9 117.9 266.4 117.9 262 117.9 260.35 117.9 259 117.9 256.75 Q118.75 253.2 118.4 248.5 L117.9 248 117.9 247.25 118.1 245.45 118.2 245.05 118.4 241.5 118.4 237.85 118.4 237.4 118.4 232.55 118.4 232.05 118.4 229.65 118.4 229.15 118.5 225.65 118.9 219 119 218.55 118.9 218.5 118.9 210.3 Q119.1 210.3 118.9 206.85 L119.35 209.8 119.4 209.8 119.35 209.5 119.35 206.4 120.25 204.9 120.35 204.5"/>
    <path stroke="none" fill="#727272" d="M430.5 262.05 Q437.2 264 443.6 266.35 L444.05 266.4 Q446.5 286.75 449.1 307 L454.9 352 455.15 353 454.9 352.9 Q445.7 330.75 436.3 308.95 L436.3 308.5 436.05 307 Q432.85 284.9 430.5 262.05 M484.25 385.15 L484.45 385.9 490 426.5 489.55 426.5 480.8 425.55 480.75 425.1 474.55 401.85 476.15 402 476.95 401.85 Q482.15 399.65 483.45 393.3 L484.2 386.35 484.25 385.15"/>
    <path stroke="none" fill="#3da2e6" d="M343.9 225.75 Q347.6 226.85 351.15 228.1 L351.65 228.2 380.2 238.75 380.65 238.85 383.95 246.6 384.05 247.05 383.95 247.3 Q374.3 250.35 366.15 254.8 L365.65 254.8 365.6 254.55 Q361.05 253.05 356.45 251.9 L356.45 251.4 Q355.25 242.95 354.55 234 L354.1 233.9 Q350.25 232.2 345.8 231.1 L345.7 230.65 Q344.65 228.35 343.9 225.75"/>
    <path stroke="none" fill="#7c7c7c" d="M341.45 277.05 L341.2 277 339.9 259 337.1 228.2 Q341.8 229 345.4 231 L345.8 231.1 Q350.25 232.2 354.1 233.9 L354.55 234 Q355.25 242.95 356.45 251.4 L356.45 251.9 Q356.1 255.4 356.9 257.7 L356.95 258.2 356.95 259 356.95 262.05 356.95 262.55 361.05 307 362.75 327.85 362.75 328.3 362.5 328.25 354.1 307 Q347.95 291.8 341.45 277.05 M118.1 245.45 L117.9 247.25 117.9 248 117.9 256.25 117.9 256.75 117.9 259 117.9 260.35 117.9 262 117.9 266.4 117.9 266.9 117.65 266.9 117.6 266.9 117.9 260.35 117.8 262 117.45 266.9 117.6 262 117.6 259 Q117.5 256.9 117.1 258.25 L116.95 259 116.55 262 Q115.9 267.8 115 281.9 L115 293.5 115 293.95 114.75 293.9 101.85 262 100.6 259 92.75 240.3 92.75 239.8 92.75 238.35 Q93.6 233.6 93.25 227.7 93.2 227.45 93.7 225.75 L93.7 226.25 Q105.6 236.15 118 245.5 L118.1 245.45 M93.7 225.75 L93.25 226.75 93.25 226.7 93.7 225.75"/>
    <path stroke="none" fill="#3fa7eb" d="M324.55 233.5 L324.15 233.4 316.3 226.25 316.2 225.8 Q313.4 220.15 311 214.15 327.65 219.45 343.4 225.7 L343.9 225.75 Q344.65 228.35 345.7 230.65 L345.8 231.1 345.4 231 Q341.8 229 337.1 228.2 L336.65 228.3 Q330.9 231.2 324.55 233.5"/>
    <path stroke="none" fill="#40abef" d="M324.55 233.5 L324.5 233.75 Q319.25 235 316.8 238.85 L316.35 238.75 Q309.35 236.1 301.8 234 L301.75 233.5 Q301.15 225.15 300.8 216.6 L300.35 216.5 Q290.9 212.95 281 209.8 L280.5 209.9 279.55 210.3 279.45 209.85 275.65 201.6 Q289.75 206.35 303.75 211.2 L304.2 211.25 Q307.05 213 310.95 213.9 L311 214.15 Q313.4 220.15 316.2 225.8 L316.3 226.25 324.15 233.4 324.55 233.5"/>
    <path stroke="none" fill="#070909" d="M316.8 239.3 L316.65 239.65 Q309.75 245.85 303.25 252.35 L303.25 252.85 303 252.85 302.75 245.1 316.35 239.4 316.8 239.3 M365.65 254.8 L366.15 254.8 366 255.15 361.45 259 356.95 262.55 356.95 262.05 356.95 259 356.95 258.2 Q361.35 256.8 365.2 254.9 L365.65 254.8 M261.15 220.95 L261 221.3 240.35 243.2 240.35 243.65 240.1 243.65 239.85 232.05 Q244.45 229.4 249.45 227.05 L249.55 226.75 Q255.3 224.05 260.7 221.05 L261.15 220.95"/>
    <path stroke="none" fill="#0c110f" d="M316.8 238.85 Q319.25 235 324.5 233.75 L324.55 233.5 Q330.9 231.2 336.65 228.3 L337.1 228.2 339.9 259 341.2 277 341.45 277.05 343.65 307 347.25 355.4 347.25 355.9 346.8 355.95 339.05 357.8 338.55 357.75 Q324.4 354.75 309.55 352.5 L309.5 352 Q307.95 332.8 306.65 313.3 L306.6 312.85 306.25 307 303.55 259 303.25 252.85 303.25 252.35 Q309.75 245.85 316.65 239.65 L316.8 239.3 316.8 238.85"/>
    <path stroke="none" fill="#989898" d="M316.8 238.85 L316.8 239.3 316.35 239.4 302.75 245.1 302.5 245.1 Q302.35 239.2 301.8 234 309.35 236.1 316.35 238.75 L316.8 238.85"/>
    <path stroke="none" fill="#929292" d="M356.45 251.9 Q361.05 253.05 365.6 254.55 L365.65 254.8 365.2 254.9 Q361.35 256.8 356.95 258.2 L356.9 257.7 Q356.1 255.4 356.45 251.9"/>
    <path stroke="none" fill="#7f7f7f" d="M347.25 355.9 L347.25 355.4 343.65 307 341.45 277.05 Q347.95 291.8 354.1 307 L362.5 328.25 362.75 328.3 366.1 362.15 366.15 362.65 Q366.6 363.85 366.65 365.55 L366.65 366.05 Q369 372.8 372.35 378.65 L372.45 379.1 Q376.4 384.8 383.5 387.55 L384.55 387.8 384.05 387.8 383.1 387.8 363.7 384.9 Q363.7 391.9 364.2 398.45 L364.2 398.95 Q366.5 405.05 368.05 412 L368.1 412.5 367.6 412.45 311.95 405.7 311.9 405.25 Q307.3 393.65 308.55 376.2 317.65 377.95 327.45 379.1 L327.75 379.1 327.9 379.1 330.8 379.55 331 379.6 331.3 379.6 335.15 379.6 335.65 379.6 Q337.45 379.35 338.4 378.8 L339.55 378.15 Q341.7 376.65 343.5 373.9 345.3 371.45 346 369.05 347.2 362.6 347.25 355.9 M92.75 240.3 L100.6 259 101.85 262 114.75 293.9 115 293.95 115 294.45 114.65 307 113.55 336.55 113.55 342.35 113.35 343.15 111.6 344.15 111.55 344.15 111.6 344.15 111.35 344.3 111.15 344.35 Q99.85 348.7 88.9 353.45 L88.9 353 88.9 346.7 88.9 346.2 88.9 340.9 90.35 307 92.1 262 92.2 259 92.6 248.5 92.75 240.3"/>
    <path stroke="none" fill="#818181" d="M281 209.8 Q290.9 212.95 300.35 216.5 L300.8 216.6 Q301.15 225.15 301.75 233.5 L301.8 234 Q302.35 239.2 302.5 245.1 L302.75 245.1 303 252.85 303.25 252.85 303.55 259 306.25 307 306.6 312.85 306.65 313.3 306.35 313.25 304 307 Q294.55 282.45 284.2 259 L283.4 257.2 283.4 256.75 Q281.9 233.55 281 209.8"/>
    <path stroke="none" fill="#868686" d="M306.65 313.3 Q307.95 332.8 309.5 352 L309.55 352.5 Q310.1 353.85 310 355.9 L310 356.35 Q314.05 369.95 324.4 377.35 L324.3 377.3 326.9 378.9 327.75 379.1 327.45 379.1 Q317.65 377.95 308.55 376.2 307.3 393.65 311.9 405.25 L311.95 405.7 311.45 405.7 236.45 396.5 236.4 396.05 Q234.05 382.25 235 365.1 L235.5 365.1 248.55 367 Q247.55 362.45 246.05 358.65 235.65 332.45 224.75 307 L220 296.1 217.6 290.6 217.5 281.9 217.05 262 216.95 259 215.15 188.05 Q226.75 191.7 237.95 195.7 L238.4 195.8 Q239.05 204.05 238.9 213.2 L238.9 213.7 Q239.7 218.9 239.4 225.3 L239.35 225.75 Q239.45 228.8 239.85 231.55 L239.85 232.05 240.1 243.65 240.35 243.65 240.7 259 Q241.3 283.1 242.15 307 L243.3 337 Q243.35 338.8 243.7 340.4 L244.2 344.3 244.2 344.75 Q246.75 352.15 250.4 358.4 L250.5 358.8 Q256.15 366.4 266.4 369.65 L266.6 369.65 269.85 369.9 270.05 369.9 270.35 369.9 273.25 369.9 273.7 369.9 Q276.3 369.35 277.35 368.7 L278.55 368 282 365.45 282.9 364.1 Q287.85 357.2 288 344.75 L287.75 344.8 287.75 344.75 288 344.75 285.9 307 283.5 259 283.4 257.2 284.2 259 Q294.55 282.45 304 307 L306.35 313.25 306.65 313.3 M116 332.2 L116.1 332.2 116 332.65 116 332.2"/>
    <path stroke="none" fill="#1f351f" d="M309.55 352.5 Q324.4 354.75 338.55 357.75 L339.05 357.8 339.05 358.3 Q339.35 368.8 335.3 375.35 333.95 377.9 331.2 379.45 L331.3 379.6 331 379.6 330.8 379.55 327.9 379.1 327.75 379.1 326.9 378.9 324.3 377.3 324.4 377.35 Q314.05 369.95 310 356.35 L310 355.9 Q310.1 353.85 309.55 352.5"/>
    <path stroke="none" fill="#16261b" d="M435.8 375.25 L443.55 374.3 444.05 374.25 444.05 374.75 Q445.5 387.45 438.7 394.1 L437.7 394.8 Q436.95 395.45 435.35 395.55 L434.85 395.55 431 395.05 431 394.85 432.6 392.75 432.8 392.7 Q434.15 390 435.05 386.9 435.9 381.9 435.8 376.2 L435.8 375.25 M339.05 357.8 L346.8 355.95 347.25 355.9 Q347.2 362.6 346 369.05 345.3 371.45 343.5 373.9 341.7 376.65 339.55 378.15 L338.4 378.8 Q337.45 379.35 335.65 379.6 L335.15 379.6 331.3 379.6 331.2 379.45 Q333.95 377.9 335.3 375.35 339.35 368.8 339.05 358.3 L339.05 357.8 M390.8 367 L398.6 365.6 399 365.6 399.05 366.05 Q399.15 372 398.3 377.25 397.8 380.5 396.15 382.95 L395.1 384.75 Q393.95 386.35 389.85 387.8 L389.4 387.85 Q386.6 388.55 384.55 387.8 L384.55 387.35 Q386.4 386.05 387.6 384.05 389.15 381.5 389.55 379.7 L389.5 379.8 Q390.9 374.1 390.8 367.5 L390.8 367 M280 346.7 L287.3 344.85 287.75 344.8 288 344.75 Q287.85 357.2 282.9 364.1 L282 365.45 278.55 368 277.35 368.7 Q276.3 369.35 273.7 369.9 L273.25 369.9 270.35 369.9 Q270.3 369.7 270.15 369.85 272.95 367.85 274.85 365.7 279.6 358.35 280 347.2 L280 346.7"/>
    <path stroke="none" fill="#1d331d" d="M366.15 362.65 L390.35 367 390.8 367 390.8 367.5 Q390.9 374.1 389.5 379.8 L389.55 379.7 Q389.15 381.5 387.6 384.05 386.4 386.05 384.55 387.35 L384.55 387.8 383.5 387.55 Q376.4 384.8 372.45 379.1 L372.35 378.65 Q369 372.8 366.65 366.05 L366.65 365.55 Q366.6 363.85 366.15 362.65"/>
    <path stroke="none" fill="#7a7a7a" d="M411.65 341.35 L415.45 371.35 415.5 371.85 Q418.1 385.9 427.45 393.3 429.1 394.45 429.95 394.7 L430.8 395 430.8 395.05 430.5 395.05 419.35 393.6 Q420.15 407.8 424.6 418.35 L424.7 418.75 424.2 418.75 368.1 412.5 368.05 412 Q366.5 405.05 364.2 398.95 L364.2 398.45 Q363.7 391.9 363.7 384.9 L383.1 387.8 384.05 387.8 384.55 387.8 Q386.6 388.55 389.4 387.85 L389.85 387.8 Q393.95 386.35 395.1 384.75 L396.15 382.95 Q397.8 380.5 398.3 377.25 399.15 372 399.05 366.05 L399.05 365.6 399.05 365.55 399 365.1 Q395.95 336.15 393.05 307 L391.8 293.95 397.55 307 Q404.75 323.8 411.35 341.3 L411.65 341.35 M431 395.05 L430.8 395.05 430.85 395 431 395.05"/>
    <path stroke="none" fill="#253025" d="M398.6 365.6 L399 365.55 399.05 365.55 399.05 365.6 399.05 366.05 399 365.6 398.6 365.6"/>
    <path stroke="none" fill="#757575" d="M455.15 353 Q456.4 366.5 458.5 379.1 L458.55 379.6 458.95 381 Q461 390.15 464.25 394.15 467.3 398.25 471.55 400.7 L471.65 400.75 Q473.05 401.55 474.05 401.8 L474.55 401.85 480.75 425.1 480.8 425.55 480.35 425.5 475.5 425.05 475 425 468.25 424.1 467.75 424.05 424.7 418.75 424.6 418.35 Q420.15 407.8 419.35 393.6 L430.5 395.05 430.8 395.05 431 395.05 434.85 395.55 435.35 395.55 Q436.95 395.45 437.7 394.8 L438.7 394.1 Q445.5 387.45 444.05 374.75 L444.05 374.25 444 373.8 Q440 341.55 436.3 308.95 445.7 330.75 454.9 352.9 L455.15 353 M430.8 395.05 L430.8 395.1 430.8 395.05 M60.65 250.95 L70.9 259 74.8 262 79.8 265.8 80.15 265.9 80.15 266.4 Q79.55 286.9 78.6 307 L77.25 331.7 77.15 331.25 67.05 307 58.9 287.2 58.9 286.7 58.9 279 Q59.7 270.7 60.05 262 L60.2 259 60.35 252.85 60.3 251.9 60.3 251.3 60.3 250.85 60.35 251.9 60.65 250.95 M88.9 353 L88.9 353.45 88.8 353.45 88.5 353.45 88.9 353"/>
    <path stroke="none" fill="#1c311c" d="M415.5 371.85 L430.65 374.3 435.8 375.25 435.8 376.2 Q435.9 381.9 435.05 386.9 434.15 390 432.8 392.7 L432.6 392.75 431 394.85 431 395.05 430.85 395 430.8 395.05 430.8 395.1 430.8 395.05 430.8 395 429.95 394.7 Q429.1 394.45 427.45 393.3 418.1 385.9 415.5 371.85"/>
    <path stroke="none" fill="#1c301b" d="M458.55 379.6 L475 382.9 475.5 382.95 475.5 383.45 Q475.75 388.45 475.25 393.65 474.55 397.75 472.1 399.9 L471.8 400.3 Q471.7 400.5 471.25 400.5 L471.55 400.7 Q467.3 398.25 464.25 394.15 461 390.15 458.95 381 L458.55 379.6 M471.65 400.75 L471.55 400.7 471.65 400.75"/>
    <path stroke="none" fill="#232c22" d="M471.65 400.75 L471.55 400.7 471.25 400.5 Q471.7 400.5 471.8 400.3 L472.1 399.9 Q474.55 397.75 475.25 393.65 475.75 388.45 475.5 383.45 L475.5 382.95 483.25 381.55 483.7 381.5 484.25 385.4 484.25 385.15 484.2 386.35 483.45 393.3 Q482.15 399.65 476.95 401.85 L476.15 402 474.55 401.85 474.05 401.8 Q473.05 401.55 471.65 400.75"/>
    <path stroke="none" fill="#ff9e1b" d="M134.4 168.7 L240.65 64.35 240.8 64.2 181.3 184.15 Q181.15 184.5 171.35 181.1 L140.65 170.65 140.2 170.55 Q137.7 169.2 134.4 168.7"/>
    <path stroke="none" fill="#fa8600" d="M134.4 168.7 L134.35 168.7 134.1 168.75 133.85 168.95 133.9 169.2 133.75 169.2 133.5 169.3 Q132.1 170.55 130.5 171.6 L130.4 171.95 124.7 176.45 124.7 176.5 124.3 177.05 Q117 183.25 109.2 189 L109.1 189.4 Q107.7 190.9 105.8 191.9 L105.45 192.5 Q96.6 200.1 87.45 207.4 L87.3 207.75 86.95 207.85 Q86.7 207.85 86.65 208 85.8 209.15 84.55 209.8 L84.4 210.15 80.65 212.7 80.55 213.1 Q79.5 214.45 77.75 215.15 L77.65 215.5 Q76.6 216.85 74.85 217.55 L74.45 217.65 74.4 217.7 74.05 218.05 72.7 219.15 68.55 222.4 68.55 222.8 68.45 222.85 51.65 237.4 58.1 231.5 240.8 64.2 240.65 64.35 134.4 168.7 M181.3 184.15 L240.8 64.2 196.8 173.55 196.4 173.65 181.3 184.15"/>
    <path stroke="none" fill="#3ea5fa" d="M181.3 184.15 L196.4 173.65 196.8 173.55 196.8 199.65 196.8 200.15 196.4 200.25 Q189.25 205.4 181.3 209.8 L181.3 209.3 181.3 208.85 181.3 184.65 181.3 184.15"/>
    <path stroke="none" fill="#46b7fb" d="M181.3 184.15 L181.3 184.65 181.3 208.85 181.3 209.3 180.85 209.25 Q162.3 204.1 146 196.75 L145.5 196.65 Q139.85 194.85 133.9 193.35 L133.9 192.9 133.9 175 133.9 174.5 133.9 169.2 133.85 168.95 134.1 168.75 134.35 168.7 134.4 168.7 Q137.7 169.2 140.2 170.55 L140.65 170.65 171.35 181.1 Q181.15 184.5 181.3 184.15"/>
    <path stroke="none" fill="#848484" d="M181.3 209.3 L181.3 209.8 181.3 210.3 Q181.65 222.5 180.8 233.5 L180.35 233.45 Q175.5 232.35 170.15 233.5 L170.1 233.8 164.85 236.4 164.75 236.8 161 241.25 161 241.75 161 242.2 160.7 242.3 Q159.9 245.25 158.55 247.55 L158.55 248 158.3 259 158.25 262 157.6 288.65 157.6 297.35 157.6 297.85 157.35 297.75 Q150.4 279.6 143 262 L141.7 259 132.9 238.85 132.9 238.35 132.9 227.2 133.9 194.8 133.9 194.35 133.9 193.85 133.9 193.35 Q139.85 194.85 145.5 196.65 L146 196.75 Q162.3 204.1 180.85 209.25 L181.3 209.3 M117.9 248 L118.4 248.5 Q118.75 253.2 117.9 256.75 L117.9 256.25 117.9 248 M117.6 266.9 L117.45 269.8 117.45 266.9 117.6 266.9"/>
    <path stroke="none" fill="#45b5f9" d="M196.8 200.15 L196.8 199.65 196.8 173.55 Q214.8 179.45 232.15 186.05 L232.6 186.1 233.95 189.05 234.05 189.5 Q238.95 193.5 242.9 198.55 L243.25 198.7 Q248.35 207.8 252.8 217.6 L252.9 218.05 252.45 217.95 Q245.95 215.55 238.9 213.7 L238.9 213.2 Q239.05 204.05 238.4 195.8 L237.95 195.7 Q226.75 191.7 215.15 188.05 L214.75 188.15 Q205.9 194.25 196.8 200.15"/>
    <path stroke="none" fill="#263126" d="M196.8 200.15 Q205.9 194.25 214.75 188.15 L215.15 188.05 216.95 259 217.05 262 217.5 281.9 217.6 290.6 217.95 307 218.55 331.2 218.55 331.7 216.8 332.95 210.35 336.7 210.5 336.5 Q189.85 329.15 165.8 325.9 L165.85 325.4 Q166.15 323.1 165.35 322.05 L164.9 322.05 161.45 323 161.45 322.5 161.45 307 161.45 279.95 Q163.2 270.4 166.05 262 L167.15 259 Q171.85 246.3 179.25 236.3 L179.35 235.95 180.7 234.45 180.8 234 180.8 233.5 Q181.65 222.5 181.3 210.3 L181.3 209.8 Q189.25 205.4 196.4 200.25 L196.8 200.15"/>
    <path stroke="none" fill="#43b0f4" d="M275.65 201.6 L279.45 209.85 279.55 210.3 279.1 210.4 Q269.65 215.2 261.15 220.95 L261.1 220.65 Q256.65 219.55 252.9 218.05 L252.8 217.6 Q248.35 207.8 243.25 198.7 L242.9 198.55 Q238.95 193.5 234.05 189.5 L233.95 189.05 232.6 186.1 260.2 195.7 260.65 195.8 Q267.6 199 275.6 201.3 L275.65 201.6"/>
    <path stroke="none" fill="#3fa6fb" d="M124.7 176.5 L124.7 176.45 130.4 171.95 130.5 171.6 Q132.1 170.55 133.5 169.3 L133.75 169.2 133.9 169.2 133.9 174.5 133.9 175 133.9 192.9 133.9 193.35 133.9 193.85 133.9 194.35 133.5 194.45 Q127.3 199.8 120.35 204.5 L120.35 204 120.35 202.55 Q122.95 190.4 124.65 177.4 L124.7 176.85 124.7 176.8 124.95 176.75 124.7 176.45 124.7 176.5"/>
    <path stroke="none" fill="#3b9df2" d="M86.95 207.85 L87.3 207.75 87.45 207.4 Q96.6 200.1 105.45 192.5 L105.8 191.9 105.8 192.9 Q104.1 206.4 101 218.5 L101 219 101 219.5 100.6 219.6 Q97.6 222.65 93.7 224.8 L93.7 225.3 93.25 225.3 93.25 225.75 92.85 225.9 88.4 229.15 Q88.15 229.15 88.05 229.3 85.25 231.85 82.1 234 L82.1 233.5 82.1 232.55 Q85.2 221.1 86.9 208.35 L86.95 207.85"/>
    <path stroke="none" fill="#3da2f7" d="M105.8 191.9 Q107.7 190.9 109.1 189.4 L109.2 189 Q117 183.25 124.3 177.05 L124.7 176.5 124.7 176.45 124.95 176.75 124.7 176.8 124.7 176.85 124.65 177.4 Q122.95 190.4 120.35 202.55 L120.35 204 120.35 204.5 120.25 204.9 119.35 206.4 Q119.1 206.4 119.05 206.55 L118.9 206.7 118.9 206.75 Q118 207.9 116.45 208.35 L116.35 208.7 93.7 225.75 93.7 225.3 93.7 224.8 Q97.6 222.65 100.6 219.6 L101 219.5 101 219 101 218.5 Q104.1 206.4 105.8 192.9 L105.8 191.9 M82.1 234 Q85.25 231.85 88.05 229.3 88.15 229.15 88.4 229.15 L92.85 225.9 93.25 225.75 93.25 226.7 92.85 227.35 88.9 230.1 88.75 230.45 81.65 235.45 81.65 234.95 81.65 234.5 81.65 234 82.1 234"/>
    <path stroke="none" fill="#69666d" d="M93.7 225.75 L116.35 208.7 116.45 208.35 Q118 207.9 118.9 206.75 L118.9 206.7 119.05 206.55 Q119.1 206.4 119.35 206.4 L119.35 209.5 119.35 209.8 118.9 206.85 Q119.1 210.3 118.9 210.3 L118.9 218.5 118.9 219 118.5 225.65 118.4 229.15 118.4 229.65 118.4 232.05 118.4 232.55 118.15 232.55 117.95 232.5 93.7 226.25 93.7 225.75"/>
    <path stroke="none" fill="#828282" d="M119.35 209.5 L119.4 209.8 119.35 209.8 119.35 209.5 M118.9 218.5 L119 218.55 118.9 219 118.9 218.5"/>
    <path stroke="none" fill="#404040" d="M118.4 232.55 L118.4 237.4 118.4 237.85 118.4 241.5 118.2 245.05 118.1 245.45 118 245.5 Q105.6 236.15 93.7 226.25 L117.95 232.5 118.15 232.55 118.4 232.55"/>
    <path stroke="none" fill="#878787" d="M157.6 297.85 L157.6 307 157.6 323.95 157.5 324.75 142.2 331.3 142.15 331.3 142.05 331.35 142 331.35 Q136.75 333.6 130.9 335.85 L130.75 335.9 131 335.1 131 331.2 131.6 307 132.55 262 132.6 259 132.9 239.3 132.9 238.85 141.7 259 143 262 Q150.4 279.6 157.35 297.75 L157.6 297.85"/>
    <path stroke="none" fill="#3a98ec" d="M86.95 207.85 L86.9 208.35 Q85.2 221.1 82.1 232.55 L82.1 233.5 82.1 234 81.65 234 81.65 234.5 81.65 234.95 81.65 235.45 81.25 235.55 Q78.4 238.25 74.85 240.3 L74.75 240.6 Q68.6 245.65 61.8 249.95 L61.8 249.45 Q62.45 248.7 63.65 248.3 L63.7 248 63.7 247.55 63.7 246.1 Q66.75 235.35 68.55 223.35 L68.55 222.85 68.55 222.8 68.55 222.4 72.7 219.15 74.05 218.05 74.4 217.7 74.45 217.65 74.85 217.55 Q76.6 216.85 77.65 215.5 L77.75 215.15 Q79.5 214.45 80.55 213.1 L80.65 212.7 84.4 210.15 84.55 209.8 Q85.8 209.15 86.65 208 86.7 207.85 86.95 207.85 M93.25 225.75 L93.25 225.3 93.7 225.3 93.7 225.75 93.25 226.7 93.25 225.75"/>
    <path stroke="none" fill="#3994e5" d="M52.05 257.2 L51.85 257.25 Q51.65 258 50.65 257.7 L50.65 257.2 50.65 252.35 Q51.55 245.5 51.65 237.85 L51.65 237.4 53 236.1 56.7 232.75 58.1 231.5 51.65 237.4 68.45 222.85 68.55 222.85 68.55 223.35 Q66.75 235.35 63.7 246.1 L63.7 247.55 63.7 248 63.65 248.3 Q62.45 248.7 61.8 249.45 L61.8 249.95 Q61.55 249.95 61.4 250.1 L60.3 250.85 60.3 250.6 60.25 250.85 58.4 251.9 Q58.4 252.1 58 251.9 L58 252.5 52.1 256.75 52.1 257.2 52.05 257.2"/>
    <path stroke="none" fill="#625f66" d="M61.8 249.95 Q68.6 245.65 74.75 240.6 L74.85 240.3 Q78.4 238.25 81.25 235.55 L81.65 235.45 81.65 235.95 Q81.5 244.95 80.65 253.35 L80.65 255.75 80.65 256.25 80.2 256.15 60.65 250.95 60.35 251.9 60.3 250.85 61.4 250.1 Q61.55 249.95 61.8 249.95"/>
    <path stroke="none" fill="#717171" d="M44.85 371.85 L52.05 257.2 52.1 257.2 52.1 256.75 58 252.5 58 251.9 Q58.4 252.1 58.4 251.9 L60.25 250.85 60.3 250.6 60.3 250.85 60.3 251.3 60.3 251.9 60.35 252.85 60.2 259 60.05 262 Q59.7 270.7 58.9 279 L58.9 286.7 58.9 287.2 58.85 287.7 57.75 307 54.55 361.2 54.55 367 54.55 367.5 54.45 367.75 44.85 371.85 M93.25 226.7 L93.25 226.75 93.7 225.75 Q93.2 227.45 93.25 227.7 93.6 233.6 92.75 238.35 L92.75 239.8 92.75 240.3 92.6 248.5 92.2 259 92.1 262 90.35 307 88.9 340.9 88.9 346.2 88.9 346.7 88.9 353 88.5 353.45 88.25 353.55 87 354.05 76.3 358.8 76.3 358.3 76.3 354.45 Q77.35 343.85 77.25 332.2 L77.25 331.7 78.6 307 Q79.55 286.9 80.15 266.4 L80.15 265.9 80.15 265.45 80.15 264.95 80.65 262 80.8 259 80.7 256.75 80.65 256.25 80.65 255.75 80.65 253.35 Q81.5 244.95 81.65 235.95 L81.65 235.45 88.75 230.45 88.9 230.1 92.85 227.35 93.25 226.7"/>
    <path stroke="none" fill="#3d3d3d" d="M80.65 256.25 L80.7 256.75 80.8 259 80.65 262 80.15 264.95 80.15 265.45 80.15 265.9 79.8 265.8 74.8 262 70.9 259 60.65 250.95 80.2 256.15 80.65 256.25 M72.95 443.9 Q73.25 447.15 72.45 449.25 L72.45 448.75 72.45 443.45 72.9 443.45 72.95 443.9"/>
    <path stroke="none" fill="#151a15" d="M117.65 266.9 L117.45 275.1 117.45 275.6 117.45 285.25 Q117.2 285.75 117.05 289.95 116.95 289.85 116.95 293.95 L116.95 294.45 116.9 298 116.5 304.9 Q116.7 305.1 116.45 305.1 L116.45 307 116.45 312.85 116.45 313.3 116.2 320.95 Q116.2 323.6 116 323.95 L116 332.2 116 332.65 116 341.35 116 341.85 115.45 342.15 113.35 343.15 113.55 342.35 113.55 336.55 114.65 307 115 294.45 115 293.95 115 293.5 115 281.9 Q115.9 267.8 116.55 262 L116.95 259 117.1 258.25 Q117.5 256.9 117.6 259 L117.6 262 117.45 266.9 117.45 269.8 117.6 266.9 117.65 266.9"/>
    <path stroke="none" fill="#858585" d="M116.95 293.95 L117.05 294 116.95 294.45 116.95 293.95 M116.45 312.85 L116.55 312.85 116.45 313.3 116.45 312.85"/>
    <path stroke="none" fill="#787878" d="M77.25 331.7 L77.25 332.2 Q77.35 343.85 76.3 354.45 L76.3 358.3 76.3 358.8 75.8 358.8 74.4 359.6 Q64.7 363.75 54.55 367.5 L54.55 367 54.55 361.2 57.75 307 58.85 287.7 58.9 287.2 67.05 307 77.15 331.25 77.25 331.7 M75.35 359.25 L74.9 359.35 74.4 359.6 Q75.3 359 75.35 359.25"/>
    <path stroke="none" fill="#333333" d="M75.35 359.25 L75.3 359.75 69.55 388.3 69.4 390.4 68.55 389.8 Q67.85 389.15 66.65 388.8 L66.15 388.85 Q60.9 389.85 58.4 393.6 L58 394.2 Q57.6 394.65 56.95 396.05 L56.85 396.3 Q56.9 395.7 55.95 397.95 55.05 400.15 53.85 404.7 L53.7 406.6 51.55 429.55 Q49.5 452.3 47.25 498.1 L47.25 499.55 47.25 500 36.5 500 41.45 417.95 41.65 414.55 41.5 413.9 41.5 413.4 41.45 412.95 41.4 411.6 40.95 409.6 40.9 409.45 40.95 409.6 40.65 407.9 Q39.9 404.4 38.25 401.25 L38.15 401.1 Q36.95 399.15 33.7 399.4 33.45 399.4 32.35 400.05 31.15 400.65 29.35 402.8 L28.95 403.85 27.45 406.65 27.2 407.35 Q27 407.7 27.2 407.45 L27.1 407.65 26.45 408.95 Q25.85 410.2 25 412.95 L25 413.45 Q20.75 454.9 18.25 498.1 L18.25 499.55 18.25 500 9.65 500 Q9.55 499.75 9.4 500 L9.3 500 Q13.45 450.65 16.4 407.9 L16.7 402.85 17.75 383.45 Q30.75 377.6 44.05 372.1 44.2 372 44.4 371.95 L44.85 371.85 54.45 367.75 54.55 367.5 Q64.7 363.75 74.4 359.6 L74.9 359.35 75.35 359.25 M41.45 426.5 L41.45 426 41.4 426.5 41.45 426.5 M39.5 452.25 L39.5 452.2 39.5 452.25 M38.55 473.35 L38.55 473.45 38.6 473.35 38.55 473.35"/>
    <path stroke="none" fill="#050505" d="M56.85 396.3 L56.95 396.05 Q57.6 394.65 58 394.2 L58.4 393.6 Q60.9 389.85 66.15 388.85 L66.65 388.8 Q67.85 389.15 68.55 389.8 L69.4 390.4 Q71.2 393.35 72.25 396.1 73.3 398.85 73.65 402.35 L73.55 404.15 73.5 404.15 68.1 397.95 67.6 397.95 64.45 397.65 56.85 396.3 M27.2 407.45 Q27 407.7 27.2 407.35 L27.45 406.65 28.95 403.85 29.35 402.8 Q31.15 400.65 32.35 400.05 33.45 399.4 33.7 399.4 36.95 399.15 38.15 401.1 L38.25 401.25 Q39.9 404.4 40.65 407.9 L40.95 409.6 40.9 409.45 40.55 409.95 Q37 408.4 32.4 407.9 L27.2 407.45"/>
    <path stroke="none" fill="#373737" d="M76.3 358.8 L87 354.05 88.25 353.55 88.5 353.45 88.8 353.45 88.9 353.45 Q99.85 348.7 111.15 344.35 L111.35 344.3 111.6 344.15 111.6 344.75 Q109 360.05 105.8 374.75 L105.8 376.2 105.8 376.6 105.35 376.6 Q103.7 375.9 100.65 376.65 L100.9 376.5 Q96.4 378.65 93.7 382.5 L93.65 382.9 Q92.5 385.6 90.8 387.8 L90.8 388.3 90.8 388.8 90.75 389.25 88.4 395.05 88.4 395.55 Q88 398.95 87.1 401.9 L86.95 402.3 86.95 402.8 83.1 494.25 83.1 499.55 83.1 500 69.85 500 73.55 404.15 73.65 402.35 Q73.3 398.85 72.25 396.1 71.2 393.35 69.4 390.4 L69.55 388.3 75.3 359.75 75.35 359.25 Q75.3 359 74.4 359.6 L75.8 358.8 76.3 358.8 M72.95 443.9 L72.9 443.45 72.45 443.45 72.45 448.75 72.45 449.25 Q73.25 447.15 72.95 443.9"/>
    <path stroke="none" fill="#3c3c3c" d="M157.5 324.75 L160.25 323.6 Q161.45 322.85 161.45 323 L164.9 322.05 165.35 322.05 165.35 372.35 165.35 372.8 165.35 375.55 164.95 383.7 164.85 382.5 Q164.95 379.45 164.15 377.05 L164.15 377.1 Q162.75 370.8 161.3 368.4 L159.2 364.8 Q158.5 363.6 156.15 361.7 L155.05 361.1 Q154.1 360.55 152.25 360.25 L151.8 360.25 146.15 361 145.55 361.15 Q144.6 361.4 142.6 363.15 142.2 363.15 141.25 364 140.3 364.8 138.25 368 L137.85 368.5 Q137.45 368.75 136.8 370.4 136.5 370.6 135.8 372.15 L134.05 376.25 133.9 376.7 133.9 376.9 133.6 378.2 131 386.85 131 387.8 131 388.3 130.95 388.8 130 394.6 130 397 130 397.5 130 397.95 128.45 481.65 128.15 497.7 128.1 500 111.65 500 111.65 498.35 111.65 497.7 111.65 496.9 111.65 494.25 111.8 491.4 111.85 490.45 111.8 490.55 111.8 490.1 111.8 488.5 111.85 488.6 111.85 488.5 112.05 481.65 112.1 475.35 Q113.65 437.95 114.05 399.4 L114.05 398.95 114.05 398.45 Q113.95 392.5 113.1 387.35 L112.8 387.25 110.65 381.5 110.35 381.4 Q108.45 378.6 105.8 376.7 L105.35 376.6 105.8 376.6 105.8 376.2 105.8 374.75 Q109 360.05 111.6 344.75 L111.6 344.15 111.55 344.15 111.6 344.15 113.35 343.15 115.45 342.15 116 341.85 Q123.5 339 130.9 335.85 136.75 333.6 142 331.35 L142.05 331.35 142.15 331.4 142.2 331.3 157.5 324.75"/>
    <path stroke="none" fill="#46b5fa" d="M88.5 353.45 L88.9 353 88.5 353.45"/>
    <path stroke="none" fill="#070707" d="M90.8 388.8 L90.8 388.3 90.8 387.8 Q92.5 385.6 93.65 382.9 L93.7 382.5 Q96.4 378.65 100.9 376.5 L100.65 376.65 Q103.7 375.9 105.35 376.6 L105.8 376.7 Q108.45 378.6 110.35 381.4 L110.65 381.5 112.8 387.25 113.1 387.35 Q113.95 392.5 114.05 398.45 L114.05 398.95 113.7 398.8 Q112 397.1 111.15 394.6 L110.8 394.45 107.75 391.2 107.25 391.15 Q99.3 389.7 90.8 388.8"/>
    <path stroke="none" fill="#0b0b0b" d="M90.8 388.8 Q99.3 389.7 107.25 391.15 L107.75 391.2 110.8 394.45 111.15 394.6 Q112 397.1 113.7 398.8 L114.05 398.95 114.05 399.4 Q113.65 437.95 112.1 475.35 L112.05 481.65 111.85 488.5 111.8 488.5 111.8 490.1 111.8 490.55 111.8 491.4 111.65 494.25 111.65 496.9 111.65 497.7 111.65 498.35 111.65 500 83.1 500 83.1 499.55 83.1 494.25 86.95 402.8 86.95 402.3 87.1 401.9 Q88 398.95 88.4 395.55 L88.4 395.05 90.75 389.25 90.8 388.8"/>
    <path stroke="none" fill="#0d0d23" d="M136.8 370.4 Q137.45 368.75 137.85 368.5 L138.25 368 Q140.3 364.8 141.25 364 142.2 363.15 142.6 363.15 143.65 365.45 144 368 L144.05 368.45 147.3 371.5 147.45 371.85 146.95 371.8 136.8 370.4"/>
    <path stroke="none" fill="#121232" d="M131 388.3 L131 387.8 131 386.85 133.6 378.2 133.9 376.9 155.65 381.45 156.15 381.5 164.75 396.55 164.85 397 164.4 396.95 142.6 390.25 142.1 390.2 131 388.3"/>
    <path stroke="none" fill="#0f0f2b" d="M133.9 376.9 L133.9 376.7 134.05 376.25 135.8 372.15 Q136.5 370.6 136.8 370.4 L146.95 371.8 147.45 371.85 156 381.15 156.15 381.5 155.65 381.45 133.9 376.9"/>
    <path stroke="none" fill="#151537" d="M475.5 425.05 Q479.65 464.6 482.25 500 L128.1 500 128.15 497.7 128.45 481.65 130 397.95 130 397.5 130 397 130 394.6 130.95 388.8 131 388.3 142.1 390.2 142.6 390.25 164.4 396.95 164.85 397 Q166.8 401.55 168.4 404.15 L168.7 404.25 Q174.65 423.45 174.7 435.15 L460 448.25 469.7 448.75 Q467.55 437.05 468.2 424.55 L468.25 424.1 475 425 475.5 425.05"/>
    <path stroke="none" fill="#0d1210" d="M279.55 210.3 L280.5 209.9 281 209.8 Q281.9 233.55 283.4 256.75 L283.4 257.2 283.5 259 285.9 307 288 344.75 287.75 344.75 287.7 344.75 287.3 344.85 280 346.7 279.55 346.65 243.7 340.4 Q243.35 338.8 243.3 337 L242.15 307 Q241.3 283.1 240.7 259 L240.35 243.65 240.35 243.2 261 221.3 261.15 220.95 Q269.65 215.2 279.1 210.4 L279.55 210.3"/>
    <path stroke="none" fill="#9e9e9e" d="M238.9 213.7 Q245.95 215.55 252.45 217.95 L252.9 218.05 Q256.65 219.55 261.1 220.65 L261.15 220.95 260.7 221.05 Q255.3 224.05 249.55 226.75 L249.05 226.7 239.35 225.75 239.4 225.3 Q239.7 218.9 238.9 213.7"/>
    <path stroke="none" fill="#9b9b9b" d="M249.55 226.75 L249.45 227.05 Q244.45 229.4 239.85 232.05 L239.85 231.55 Q239.45 228.8 239.35 225.75 L249.05 226.7 249.55 226.75"/>
    <path stroke="none" fill="#161c16" d="M157.6 297.85 L157.6 297.35 157.6 288.65 158.25 262 158.3 259 158.55 248 158.55 247.55 Q159.9 245.25 160.7 242.3 L161 242.2 165.35 242.7 165.8 242.7 Q172.05 241.4 179 236.05 L179.35 235.95 179.25 236.3 Q171.85 246.3 167.15 259 L166.05 262 Q163.2 270.4 161.45 279.95 L161.45 307 161.45 322.5 161.45 323 Q161.45 322.85 160.25 323.6 L157.5 324.75 157.6 323.95 157.6 307 157.6 297.85"/>
    <path stroke="none" fill="#6c686f" d="M161 242.2 L161 241.75 161 241.25 164.75 236.8 164.85 236.4 170.1 233.8 170.15 233.5 Q175.5 232.35 180.35 233.45 L180.8 233.5 180.8 234 180.4 234.1 165.8 242.7 165.35 242.7 161 242.2"/>
    <path stroke="none" fill="#212121" d="M179.35 235.95 L179 236.05 Q172.05 241.4 165.8 242.7 L180.4 234.1 180.8 234 180.7 234.45 179.35 235.95"/>
    <path stroke="none" fill="#8b8b8b" d="M217.6 290.6 L220 296.1 224.75 307 Q235.65 332.45 246.05 358.65 247.55 362.45 248.55 367 L235.5 365.1 235 365.1 Q234.05 382.25 236.4 396.05 L236.45 396.5 236 396.5 220 394.7 165.35 388.3 165.3 387.8 164.95 383.7 165.35 375.55 165.35 372.8 165.35 372.35 165.35 322.05 Q166.15 323.1 165.85 325.4 L165.8 325.9 Q166.45 327.45 166.35 329.75 L166.3 330.25 Q171.7 352.15 192.85 358.5 L197.15 358.7 199.2 358.3 Q214.9 355.1 217.85 339 L218.1 338.95 Q217.8 335.05 218.5 332.15 L218.55 331.7 218.55 331.2 217.95 307 217.6 290.6"/>
    <path stroke="none" fill="#293429" d="M218.55 331.7 L218.5 332.15 Q217.8 335.05 218.1 338.95 L217.85 339 Q214.9 355.1 199.2 358.3 199.2 358.05 198.95 358.2 204.6 354.75 207.65 349.2 L207.8 349.05 Q209.4 345.7 210.05 341.95 L210.35 338 210.35 336.7 216.8 332.95 218.55 331.7"/>
    <path stroke="none" fill="#213921" d="M199.2 358.3 L197.15 358.7 192.85 358.5 Q171.7 352.15 166.3 330.25 L166.35 329.75 Q166.45 327.45 165.8 325.9 189.85 329.15 210.5 336.5 L210.35 336.7 210.35 338 210.05 341.95 Q209.4 345.7 207.8 349.05 L207.65 349.2 Q204.6 354.75 198.95 358.2 199.2 358.05 199.2 358.3"/>
    <path stroke="none" fill="#fef7ac" d="M142.05 331.35 L142.15 331.3 142.2 331.3 142.15 331.4 142.05 331.35 M165.35 322.05 L164.9 322.05 165.35 322.05"/>
    <path stroke="none" fill="#0a0a1b" d="M311.95 405.7 L367.6 412.45 368.1 412.5 424.2 418.75 424.7 418.75 467.75 424.05 468.25 424.1 468.2 424.55 Q467.55 437.05 469.7 448.75 L460 448.25 174.7 435.15 Q174.65 423.45 168.7 404.25 L168.4 404.15 Q166.8 401.55 164.85 397 L164.75 396.55 156.15 381.5 156 381.15 147.45 371.85 147.3 371.5 144.05 368.45 144 368 Q143.65 365.45 142.6 363.15 144.6 361.4 145.55 361.15 L146.15 361 151.8 360.25 152.25 360.25 Q154.1 360.55 155.05 361.1 L156.15 361.7 Q158.5 363.6 159.2 364.8 L161.3 368.4 Q162.75 370.8 164.15 377.1 L164.15 377.05 Q164.95 379.45 164.85 382.5 L164.95 383.7 165.3 387.8 165.35 388.3 220 394.7 236 396.5 236.45 396.5 311.45 405.7 311.95 405.7"/>
    <path stroke="none" fill="#283329" d="M287.3 344.85 L287.7 344.75 287.75 344.75 287.75 344.8 287.3 344.85"/>
    <path stroke="none" fill="#203720" d="M243.7 340.4 L279.55 346.65 280 346.7 280 347.2 Q279.6 358.35 274.85 365.7 272.95 367.85 270.15 369.85 270.3 369.7 270.35 369.9 L270.05 369.9 269.85 369.9 266.6 369.65 266.4 369.65 Q256.15 366.4 250.5 358.8 L250.4 358.4 Q246.75 352.15 244.2 344.75 L244.2 344.3 243.7 340.4"/>
    <path stroke="none" fill="#0a0a0a" d="M73.55 404.15 L69.85 500 47.25 500 47.25 499.55 47.25 498.1 Q49.5 452.3 51.55 429.55 L53.7 406.6 53.85 404.7 Q55.05 400.15 55.95 397.95 56.9 395.7 56.85 396.3 L64.45 397.65 67.6 397.95 68.1 397.95 73.5 404.15 73.55 404.15 M40.9 409.45 L40.95 409.6 41.4 411.6 41.45 412.95 41.5 413.4 41.5 413.9 41.45 417.95 36.5 500 18.25 500 18.25 499.55 18.25 498.1 Q20.75 454.9 25 413.45 L25 412.95 Q25.85 410.2 26.45 408.95 L27.1 407.65 27.2 407.45 32.4 407.9 Q37 408.4 40.55 409.95 L40.9 409.45 M41.45 426.5 L41.4 426.5 41.45 426 41.45 426.5"/>
    <path stroke="none" fill="#fff5ab" d="M111.85 488.5 L111.85 488.6 111.8 488.5 111.85 488.5 M111.8 490.55 L111.85 490.45 111.8 491.4 111.8 490.55"/>
    <path stroke="none" fill="#3a3a3a" d="M41.5 413.9 L41.65 414.55 41.45 417.95 41.5 413.9 M38.55 473.35 L38.6 473.35 38.55 473.45 38.55 473.35"/>
    <path stroke="none" fill="url(#gradient0)" d="M430.5 262.05 L430.5 261.8 Q427.3 263.2 422.65 264.45 L423.15 264.25 422.65 264.4 422.4 263.6 421.8 260.6 Q421.6 260.6 421.2 258.55 L420.4 254.65 420 252.9 419.6 252.75 419.5 252.75 419.5 252.7 419.65 252.55 240.8 64.2 58.1 231.5 56.7 232.75 53 236.1 51.65 237.4 51.65 237.85 Q51.55 245.5 50.65 252.35 L50.65 257.2 50.65 257.7 Q51.65 258 51.85 257.25 L52.05 257.2 44.85 371.85 44.4 371.95 Q44.2 372 44.05 372.1 30.75 377.6 17.75 383.45 L16.7 402.85 16.4 407.9 Q13.45 450.65 9.3 500 L0 500 0 0 500 0 500 500 482.25 500 Q479.65 464.6 475.5 425.05 L480.35 425.5 480.8 425.55 489.55 426.5 490 426.5 484.45 385.9 484.25 385.15 484.25 385.4 483.7 381.5 483.25 381.55 475.5 382.95 475 382.9 458.55 379.6 458.5 379.1 Q456.4 366.5 455.15 353 L454.9 352 449.1 307 Q446.5 286.75 444.05 266.4 L443.6 266.35 Q437.2 264 430.5 262.05 M117.45 275.1 L117.55 275.15 117.45 275.6 117.45 275.1 M68.55 222.8 L68.55 222.85 68.45 222.85 68.55 222.8 M117.45 266.9 L117.8 262 117.9 260.35 117.6 266.9 117.45 266.9 M39.5 452.25 L39.5 452.2 39.5 452.25"/>
  </g>
</svg>