<?xml version="1.0" encoding="UTF-8" standalone="no"?>
<!-- Generator: Adobe Illustrator 16.0.0, SVG Export Plug-In . SVG Version: 6.00 Build 0)  -->

<svg
   xmlns:dc="http://purl.org/dc/elements/1.1/"
   xmlns:cc="http://creativecommons.org/ns#"
   xmlns:rdf="http://www.w3.org/1999/02/22-rdf-syntax-ns#"
   xmlns:svg="http://www.w3.org/2000/svg"
   xmlns="http://www.w3.org/2000/svg"
   xmlns:sodipodi="http://sodipodi.sourceforge.net/DTD/sodipodi-0.dtd"
   xmlns:inkscape="http://www.inkscape.org/namespaces/inkscape"
   version="1.1"
   id="Capa_1"
   x="0px"
   y="0px"
   width="498.686px"
   height="498.686px"
   viewBox="0 0 498.686 498.686"
   style="enable-background:new 0 0 498.686 498.686;"
   xml:space="preserve"
   inkscape:version="0.48.4 r9939"
   sodipodi:docname="clone.svg"><metadata
     id="metadata41"><rdf:RDF><cc:Work
         rdf:about=""><dc:format>image/svg+xml</dc:format><dc:type
           rdf:resource="http://purl.org/dc/dcmitype/StillImage" /></cc:Work></rdf:RDF></metadata><defs
     id="defs39" /><sodipodi:namedview
     pagecolor="#ffffff"
     bordercolor="#666666"
     borderopacity="1"
     objecttolerance="10"
     gridtolerance="10"
     guidetolerance="10"
     inkscape:pageopacity="0"
     inkscape:pageshadow="2"
     inkscape:window-width="640"
     inkscape:window-height="480"
     id="namedview37"
     showgrid="false"
     inkscape:zoom="0.47324368"
     inkscape:cx="249.343"
     inkscape:cy="249.343"
     inkscape:window-x="0"
     inkscape:window-y="28"
     inkscape:window-maximized="0"
     inkscape:current-layer="Capa_1" /><g
     id="g3"
     style="fill:#cccccc"><path
       d="M320.919,191.579H175.464V167.57c0-3.833-3.097-6.933-6.931-6.933c-3.836,0-6.93,3.1-6.93,6.933v22.952   c3.269,0,6.452,0.378,9.54,1.058H16.166C7.25,191.579,0,198.829,0,207.739v184.836c0,8.913,7.25,16.166,16.166,16.166h304.753   c8.914,0,16.16-7.253,16.16-16.166V207.739C337.079,198.829,329.821,191.579,320.919,191.579z M323.225,392.575   c0,1.276-1.04,2.311-2.306,2.311H16.166c-1.276,0-2.314-1.034-2.314-2.311V207.739c0-1.271,1.038-2.305,2.314-2.305h304.753   c1.277,0,2.306,1.035,2.306,2.305V392.575L323.225,392.575z M219.514,96.83c0-3.783,3.094-6.88,6.924-6.88h41.556   c3.83,0,6.934,3.097,6.934,6.88c0,3.839-3.104,6.933-6.934,6.933h-41.556C222.608,103.754,219.514,100.669,219.514,96.83z    M161.609,126.017v-19.949c0-8.869,7.247-16.119,16.16-16.119h7.119c3.831,0,6.925,3.097,6.925,6.88   c0,3.839-3.094,6.933-6.925,6.933h-7.119c-1.244,0-2.305,1.064-2.305,2.311v19.949c0,3.831-3.097,6.924-6.931,6.924   C164.704,132.941,161.609,129.848,161.609,126.017z M441.15,96.83c0,3.839-3.098,6.933-6.934,6.933H392.67   c-3.836,0-6.934-3.094-6.934-6.933c0-3.783,3.098-6.88,6.934-6.88h41.559C438.059,89.95,441.15,93.047,441.15,96.83z    M498.686,167.942v41.559c0,3.83-3.098,6.924-6.934,6.924c-3.83,0-6.927-3.094-6.927-6.924v-41.559   c0-3.789,3.097-6.928,6.927-6.928C495.594,161.015,498.686,164.153,498.686,167.942z M498.686,106.068v20.312   c0,3.83-3.098,6.93-6.934,6.93c-3.83,0-6.927-3.1-6.927-6.93v-20.312c0-1.247-1.017-2.314-2.312-2.314h-6.732   c-3.836,0-6.934-3.091-6.934-6.93c0-3.783,3.098-6.88,6.934-6.88h6.732C491.433,89.95,498.686,97.199,498.686,106.068z    M498.686,251.054v39.897c0,8.86-7.253,16.113-16.166,16.16h-27.054c-3.836,0-6.934-3.139-6.934-6.969   c0-3.783,3.098-6.934,6.934-6.934h27.054c1.295,0,2.317-1.011,2.317-2.258v-39.897c0-3.783,3.085-6.931,6.927-6.931   C495.594,244.129,498.686,247.271,498.686,251.054z M358.039,96.83c0,3.839-3.104,6.933-6.928,6.933h-41.553   c-3.836,0-6.933-3.094-6.933-6.933c0-3.783,3.097-6.88,6.933-6.88h41.553C354.936,89.95,358.039,93.047,358.039,96.83z    M420.835,300.143c0,3.83-3.098,6.969-6.928,6.969h-41.553c-3.782,0-6.934-3.139-6.934-6.969c0-3.783,3.151-6.934,6.934-6.934   h41.553C417.737,293.209,420.835,296.359,420.835,300.143z"
       id="path5"
       style="fill:#cccccc" /></g><g
     id="g7" /><g
     id="g9" /><g
     id="g11" /><g
     id="g13" /><g
     id="g15" /><g
     id="g17" /><g
     id="g19" /><g
     id="g21" /><g
     id="g23" /><g
     id="g25" /><g
     id="g27" /><g
     id="g29" /><g
     id="g31" /><g
     id="g33" /><g
     id="g35" /></svg>