<?xml version="1.0" encoding="UTF-8" standalone="no"?>
<!-- Generator: Adobe Illustrator 18.1.1, SVG Export Plug-In . SVG Version: 6.00 Build 0)  -->

<svg
   xmlns:dc="http://purl.org/dc/elements/1.1/"
   xmlns:cc="http://creativecommons.org/ns#"
   xmlns:rdf="http://www.w3.org/1999/02/22-rdf-syntax-ns#"
   xmlns:svg="http://www.w3.org/2000/svg"
   xmlns="http://www.w3.org/2000/svg"
   xmlns:sodipodi="http://sodipodi.sourceforge.net/DTD/sodipodi-0.dtd"
   xmlns:inkscape="http://www.inkscape.org/namespaces/inkscape"
   version="1.1"
   id="Capa_1"
   x="0px"
   y="0px"
   viewBox="0 0 186.623 186.623"
   style="enable-background:new 0 0 186.623 186.623;"
   xml:space="preserve"
   inkscape:version="0.48.4 r9939"
   width="100%"
   height="100%"
   sodipodi:docname="write64.svg"><metadata
     id="metadata3095"><rdf:RDF><cc:Work
         rdf:about=""><dc:format>image/svg+xml</dc:format><dc:type
           rdf:resource="http://purl.org/dc/dcmitype/StillImage" /></cc:Work></rdf:RDF></metadata><defs
     id="defs3093" /><sodipodi:namedview
     pagecolor="#ffffff"
     bordercolor="#666666"
     borderopacity="1"
     objecttolerance="10"
     gridtolerance="10"
     guidetolerance="10"
     inkscape:pageopacity="0"
     inkscape:pageshadow="2"
     inkscape:window-width="640"
     inkscape:window-height="480"
     id="namedview3091"
     showgrid="false"
     inkscape:zoom="1.2645815"
     inkscape:cx="93.3115"
     inkscape:cy="93.3115"
     inkscape:window-x="0"
     inkscape:window-y="28"
     inkscape:window-maximized="0"
     inkscape:current-layer="Capa_1" /><g
     id="g3051"
     style="fill:#cccccc"><g
       id="g3053"
       style="fill:#cccccc"><path
         style="fill:#cccccc"
         d="M151.994,7.634l26.999,26.995l-8.224,8.221l-9.276-9.262c-0.633-0.641-1.668-0.644-2.308,0    c-0.644,0.644-0.644,1.675,0,2.316l9.273,9.266l-6.642,6.646l-9.276-9.269c-0.641-0.637-1.675-0.637-2.312,0    c-0.637,0.641-0.637,1.678,0,2.316l9.262,9.262l-7.526,7.533l-9.273-9.266c-0.63-0.648-1.678-0.644-2.316,0    c-0.633,0.641-0.633,1.678,0,2.316l9.276,9.266l-7.272,7.272l-17.064-17.05c-0.633-0.644-1.675-0.644-2.308,0    c-0.644,0.644-0.644,1.678,0,2.316l17.05,17.05l-10.529,10.536l-9.276-9.266c-0.641-0.644-1.671-0.644-2.319,0    c-0.641,0.641-0.641,1.671,0,2.312l9.269,9.266l-1.8,1.797l4.635,4.627l53.59-53.583c2.559-2.552,2.559-6.707,0-9.266    L156.643,2.992c-2.57-2.555-6.721-2.555-9.276,0l-53.583,53.59l4.62,4.635L151.994,7.634z"
         id="path3055" /><path
         style="fill:#cccccc"
         d="M86.411,127.203l-9.266-9.266c-0.641-0.644-1.675-0.644-2.316,0c-0.644,0.651-0.641,1.678,0,2.316    l9.266,9.28L73.56,140.059l-17.05-17.05c-0.637-0.644-1.671-0.644-2.316,0c-0.641,0.633-0.644,1.675,0,2.308l17.05,17.064    l-7.272,7.272l-9.266-9.276c-0.637-0.633-1.675-0.633-2.316,0c-0.644,0.641-0.644,1.689,0,2.316l9.266,9.273l-7.53,7.526    l-9.262-9.258c-0.641-0.641-1.678-0.641-2.319-0.004c-0.637,0.641-0.633,1.675,0,2.312l9.269,9.28l-6.642,6.639l-9.266-9.273    c-0.641-0.644-1.675-0.644-2.316,0c-0.641,0.641-0.637,1.675,0.004,2.308l9.262,9.276l-8.221,8.224L7.634,152.001l53.583-53.593    l-4.635-4.624L3.003,147.37c-2.559,2.555-2.555,6.707,0,9.276l26.992,26.985c2.555,2.555,6.71,2.555,9.262,0l53.583-53.59    l-4.631-4.638L86.411,127.203z"
         id="path3057" /><path
         style="fill:#cccccc"
         d="M186.283,180.185c-16.03-34.901-17.443-36.311-17.977-36.851L27.357,3.321    c-2.92-2.92-7.68-2.92-10.601,0L2.19,17.891c-2.92,2.92-2.92,7.673,0,10.597l140.946,140.019    c0.601,0.594,2.011,1.997,38.333,16.713c1.421,0.573,3.056,0.225,4.109-0.884C186.651,183.23,186.92,181.584,186.283,180.185z     M7.483,23.195L22.049,8.622l16.355,16.359L23.849,39.55L7.483,23.195z M29.146,44.85l14.566-14.569l116.645,115.708    l-14.562,14.562L29.146,44.85z M152.123,164.831l12.648-12.658c2.423,4.846,6.499,13.467,10.704,22.522    C166.127,170.848,157.18,167.09,152.123,164.831z"
         id="path3059" /></g></g><g
     id="g3061" /><g
     id="g3063" /><g
     id="g3065" /><g
     id="g3067" /><g
     id="g3069" /><g
     id="g3071" /><g
     id="g3073" /><g
     id="g3075" /><g
     id="g3077" /><g
     id="g3079" /><g
     id="g3081" /><g
     id="g3083" /><g
     id="g3085" /><g
     id="g3087" /><g
     id="g3089" /></svg>